<?xml version="1.0" standalone="no"?>
<!DOCTYPE svg PUBLIC "-//W3C//DTD SVG 20010904//EN"
 "http://www.w3.org/TR/2001/REC-SVG-20010904/DTD/svg10.dtd">
<svg version="1.0" xmlns="http://www.w3.org/2000/svg"
 width="306.000000pt" height="306.000000pt" viewBox="0 0 306.000000 306.000000"
 preserveAspectRatio="xMidYMid meet">

<g transform="translate(0.000000,306.000000) scale(0.100000,-0.100000)"
fill="#000000" stroke="none">
<path d="M1888 2977 c-8 -9 -18 -13 -22 -10 -3 4 -6 -1 -6 -10 0 -9 -6 -16
-12 -14 -7 1 -12 -4 -10 -11 1 -8 -1 -11 -6 -8 -5 3 -24 -10 -42 -29 -18 -19
-37 -32 -42 -29 -4 3 -8 -3 -8 -12 0 -10 -3 -14 -6 -11 -4 4 -14 -1 -23 -11
-9 -9 -33 -32 -53 -49 l-37 -32 217 -3 c189 -3 219 -1 232 13 8 9 43 52 77 96
l62 81 -51 21 c-71 30 -246 41 -270 18z"/>
<path d="M2442 2440 c-5 -37 -102 -267 -182 -435 l-48 -101 -4 -699 c-4 -767
-2 -736 -64 -799 -57 -57 -49 -56 -614 -56 -422 0 -527 3 -554 14 -47 20 -99
75 -115 124 -8 23 -18 39 -23 36 -5 -3 -4 -12 2 -19 8 -10 8 -15 -2 -21 -7 -4
-10 -4 -6 1 4 4 3 14 -4 22 -9 11 -17 8 -45 -19 -18 -17 -33 -28 -33 -23 0 5
-16 -6 -35 -25 -19 -19 -35 -30 -35 -26 0 5 -6 3 -14 -3 -26 -22 5 -96 74
-174 50 -56 108 -92 191 -118 56 -18 100 -19 603 -19 498 0 547 2 598 18 157
52 276 181 307 335 8 36 10 360 9 1027 -2 536 -4 968 -6 960z m-1625 -1944 c0
-8 -5 -14 -11 -13 -6 1 -10 -4 -8 -10 1 -7 -4 -12 -10 -10 -7 1 -12 -4 -10
-10 1 -7 -4 -12 -10 -10 -7 1 -12 -4 -10 -11 1 -8 -1 -11 -6 -8 -5 3 -19 -5
-31 -18 -13 -13 -29 -23 -37 -22 -22 3 -17 21 6 21 11 0 20 5 21 10 1 15 20
35 29 30 4 -2 22 11 40 30 39 41 37 39 37 21z"/>
<path d="M1540 2035 c0 -103 3 -135 13 -135 11 0 113 188 105 195 -2 1 -29 19
-60 39 l-58 37 0 -136z"/>
<path d="M820 2073 c0 -9 -3 -13 -7 -10 -4 4 -19 -5 -35 -20 -15 -15 -28 -24
-28 -20 0 3 -31 -23 -70 -60 l-70 -67 0 -83 c0 -60 3 -83 13 -82 27 1 232 96
231 107 -1 7 -2 66 -2 132 -2 99 -5 120 -17 120 -8 0 -15 -7 -15 -17z"/>
<path d="M1227 1991 c-26 -15 -50 -30 -53 -33 -3 -3 23 -21 58 -41 35 -19 85
-47 112 -62 26 -15 46 -23 44 -18 -16 26 -78 166 -78 174 0 17 -34 8 -83 -20z"/>
<path d="M1215 1657 c11 -8 61 -38 110 -67 232 -137 345 -200 357 -200 17 1
211 115 215 126 2 5 -30 27 -69 49 -40 22 -99 55 -131 73 l-59 32 -221 0
c-189 0 -219 -2 -202 -13z"/>
<path d="M1538 1150 c-2 -100 -1 -119 11 -115 12 5 192 109 291 169 19 12 43
26 54 31 11 6 21 16 24 23 3 9 -39 12 -187 12 l-190 0 -3 -120z"/>
<path d="M1590 557 c-20 -18 -51 -44 -70 -59 l-35 -26 28 -7 c58 -15 121 37
115 95 l-3 29 -35 -32z"/>
</g>
</svg>
